<svg xmlns="http://www.w3.org/2000/svg" width="582" height="528" viewBox="0 0 582 528">
<g>
<path d="M 304.50 404.15 C293.61,406.88 266.00,407.57 254.50,405.41 C245.65,403.74 228.95,398.41 220.53,394.56 C203.18,386.62 181.51,367.69 170.29,350.69 C154.44,326.65 146.84,299.45 148.46,272.64 C150.83,233.66 171.68,203.94 207.81,188.08 C219.56,182.92 219.90,182.96 224.20,189.70 C232.37,202.49 244.01,212.59 256.50,217.71 C261.04,219.57 261.86,220.44 265.41,227.08 L 269.31 234.41 L 266.07 257.45 C264.29,270.13 260.16,299.37 256.90,322.43 L 250.96 364.36 L 257.16 372.43 C260.57,376.87 265.28,383.01 267.62,386.08 C276.11,397.19 276.65,397.07 289.29,381.00 C294.70,374.12 299.76,367.32 300.52,365.88 C301.74,363.59 301.62,361.15 299.50,346.38 C298.18,337.10 294.58,311.50 291.52,289.50 C288.46,267.50 285.45,246.10 284.83,241.93 L 283.71 234.37 L 287.61 227.05 C291.30,220.11 291.80,219.61 297.31,217.41 C308.81,212.82 319.48,203.62 327.96,190.99 C330.35,187.42 332.46,184.32 332.65,184.09 C334.07,182.36 355.84,192.61 365.85,199.73 C382.96,211.89 395.91,230.59 401.02,250.50 C403.71,260.97 405.30,277.60 404.51,287.00 C401.74,320.09 389.86,346.13 367.04,369.13 C349.42,386.90 330.05,397.74 304.50,404.15 ZM 289.50 209.45 C274.91,213.59 262.03,211.34 249.50,202.48 C235.95,192.89 226.37,177.85 221.48,158.50 L 219.21 149.50 L 215.08 148.93 C209.97,148.22 206.02,145.42 203.80,140.94 C201.75,136.77 200.08,122.06 201.05,116.71 C202.00,111.54 207.23,106.22 212.74,104.83 L 217.00 103.76 L 217.02 96.63 C217.06,79.62 222.80,65.92 234.88,53.98 C243.50,45.47 249.84,41.96 262.31,38.80 C268.94,37.13 272.28,36.85 279.99,37.32 C295.69,38.29 306.74,43.01 317.87,53.52 C329.10,64.11 334.58,76.63 335.69,94.16 L 336.29 103.82 L 340.69 105.05 C343.70,105.90 346.21,107.58 348.65,110.39 L 352.20 114.50 L 351.75 126.16 C351.40,135.20 350.87,138.54 349.40,141.05 C346.76,145.56 342.78,148.26 337.81,148.93 L 333.59 149.50 L 332.37 155.52 C330.18,166.38 325.70,176.62 318.69,186.81 C310.78,198.33 300.43,206.35 289.50,209.45 Z" fill="rgb(10,138,210)" data-index="0" style="opacity: 1;"></path>
<path d="M 465.80 482.10 C459.31,485.42 451.47,485.40 445.00,482.06 C443.62,481.35 429.11,467.44 412.74,451.14 C389.98,428.49 382.66,421.76 381.61,422.51 C358.13,439.40 332.54,450.03 303.00,455.14 C292.97,456.87 261.82,456.87 251.00,455.13 C206.83,448.04 169.24,426.92 140.39,393.00 C123.41,373.03 109.97,346.35 103.62,320.00 C98.42,298.39 97.71,266.89 101.95,245.50 C109.02,209.85 129.16,173.33 154.57,150.11 C168.01,137.83 189.68,122.79 190.44,125.22 C190.66,125.92 191.32,129.96 191.91,134.18 C192.49,138.41 193.73,143.46 194.66,145.42 C195.60,147.38 196.17,149.12 195.93,149.30 C195.69,149.48 192.35,151.82 188.50,154.50 C157.12,176.34 135.10,209.98 126.80,248.77 C124.85,257.89 124.50,262.43 124.50,279.00 C124.51,301.74 125.67,309.18 132.61,330.76 C133.37,333.10 136.19,339.63 138.89,345.26 C159.74,388.74 199.97,419.72 248.50,429.66 C262.20,432.46 293.96,432.21 307.00,429.19 C339.32,421.70 361.62,409.51 384.07,387.07 C406.58,364.57 419.99,339.96 426.69,308.87 C429.48,295.97 429.21,262.18 426.22,248.40 C421.75,227.85 413.85,209.48 401.88,191.81 C394.18,180.44 376.53,162.52 365.25,154.61 C360.71,151.43 357.00,148.73 357.00,148.60 C357.00,148.48 357.94,146.43 359.09,144.06 C360.34,141.47 361.40,136.76 361.73,132.34 C362.04,128.27 362.61,124.74 362.99,124.51 C363.96,123.91 381.38,135.28 388.00,140.84 C418.56,166.49 437.51,195.46 447.56,231.89 C461.18,281.23 452.78,334.81 424.83,376.95 L 419.16 385.50 L 448.95 415.50 C472.40,439.11 479.03,446.35 480.07,449.50 C481.85,454.90 481.58,463.97 479.51,467.97 C477.03,472.79 470.12,479.90 465.80,482.10 Z" fill="rgb(47,49,141)" data-index="1" style="opacity: 1;"></path>

</g>
</svg>